# xmcd
#
# Track frame offsets:
#	150
#	14601
#	29025
#	43788
#	59394
#	77643
#	107904
#	125988
#	140745
#	163047
#	177804
#	195387
#	208068
#	224331
#	237222
#
# Disc length: 3438 seconds
#
# Revision: 1
# Processed by: cddbd v1.5PL3 Copyright (c) Steve Scherf et al.
# Submitted via: audiograbber 1.83.01
#
DISCID=e40d6c0f
DTITLE=Various Artist - Мелодии и ритмы советской эстрады. Выпуск 3. (2003)
DYEAR=1900
DGENRE=
TTITLE0=Виа Пламя. - На дальней станции сойду.
TTITLE1=Виа Самоцветы. - Там за облаками.
TTITLE2=Виа Пламя. - На два дня.
TTITLE3=Виа Самоцветы. - Добрая примета.
TTITLE4=Виа Ариэль. - Благодарствуйте, сударыня.
TTITLE5=Виа Песняры. - Александрина.
TTITLE6=Виа Синяя птица. - Радуга.
TTITLE7=Виа Здравствуй, песня. - Не обещай.
TTITLE8=Виа Песняры. - Беловежская пуща.
TTITLE9=П. Бюль-Бюль Оглы. - Пройдя сквозь горы.
TTITLE10=Виа Верасы. - Я у бабушки живу.
TTITLE11=Виа Поющие гитары. - Толстый Карлсон.
TTITLE12=Виа Синяя птица. - В море ходят пароходы.
TTITLE13=Виа Самоцветы. - Верба.
TTITLE14=Виа Ариэль. - Шире круг.
EXTD=
EXTT0=
EXTT1=
EXTT2=
EXTT3=
EXTT4=
EXTT5=
EXTT6=
EXTT7=
EXTT8=
EXTT9=
EXTT10=
EXTT11=
EXTT12=
EXTT13=
EXTT14=
PLAYORDER=
